<?xml version="1.0" encoding="UTF-8"?>
<svg id="Capa_1" data-name="Capa 1" xmlns="http://www.w3.org/2000/svg" viewBox="0 0 500 500">
  <defs>
    <style>
      .cls-1 {
        fill: #1b1b1b;
      }
    </style>
  </defs>
  <path class="cls-1" d="M493.58,14.68c-3.54-3.54-10.33-5.5-20.38-5.87-9.68,0-19.64-.19-29.87-.56-10.24-.37-20.2-.18-29.87,.56-12.28,1.12-24.66,2.34-37.13,3.64-12.47,1.31-24.66,3.08-36.57,5.32-9.68,1.5-15.82,4.2-18.43,8.11-2.61,3.92-4.1,10.73-4.46,20.43,0,7.84-.1,15.86-.28,24.07-.19,8.21,.09,16.6,.84,25.18,1.86,25.74,3.81,51.58,5.86,77.5,2.04,25.93,4.37,51.76,6.98,77.5,.74,13.43,1.58,26.86,2.51,40.29,.92,13.43,2.14,26.86,3.63,40.29,.74,7.09,3.16,12.78,7.26,17.07,4.09,4.29,9.49,6.63,16.19,7,14.14,.75,27.92,1.49,41.32,2.24,13.4,.75,27.17,.75,41.31,0,13.77-.37,23.54-3.45,29.31-9.23,5.77-5.78,10.14-15.76,13.12-29.94,0-.74,.28-1.77,.84-3.08,.56-1.3,.84-2.7,.84-4.2,1.12-17.15,2.32-34.78,3.63-52.88,1.3-18.09,2.51-37.86,3.63-59.32,1.12-21.45,2.13-45.51,3.07-72.19,.93-26.67,1.96-57.17,3.07-91.49-.75-10.08-2.89-16.88-6.42-20.43Z"/>
  <path class="cls-1" d="M476.55,389.9c-4.46-5.22-12.1-8.2-22.89-8.95-14.15-.74-28.47-.74-42.99,0-14.52,.75-29.03,1.87-43.55,3.35-7.45,.75-14.24,2.99-20.38,6.71-6.14,3.73-9.59,10.08-10.33,19.03-1.12,17.54-1.12,35.07,0,52.6,.74,8.58,3.81,15.02,9.22,19.31,5.39,4.29,11.81,6.63,19.26,6.99,14.88,.74,29.5,1.21,43.83,1.4,14.33,.19,28.56-.09,42.71-.84,9.67-.74,16.93-3.92,21.77-9.51,4.83-5.6,8-13.24,9.49-22.94,.36-3.72,.64-7.56,.84-11.47,.18-3.92,.28-8.48,.28-13.71,0-1.86,.09-4.38,.28-7.55,.18-3.17,.09-6.24-.28-9.23-.37-11.56-2.79-19.96-7.26-25.18Z"/>
  <path class="cls-1" d="M23.24,233.88c1.58,7.18,3.58,14.18,6.01,20.99,7.52,22.63,19.06,40.64,34.6,54.02,15.53,13.38,34.47,22.76,56.81,28.1,6.31,1.46,12.98,2.01,20.03,1.64,7.04-.37,14.07-.55,21.12-.55,7.28-.25,14.26-1.4,20.94-3.46,6.68-2.07,13.17-4.93,19.48-8.58,13.84-8.27,24.7-18.49,32.59-30.66,7.88-12.16,13.9-25.92,18.03-41.25,4.37-16.3,7.22-32.6,8.56-48.91,1.33-16.3,2.48-32.6,3.46-48.91,.97-16.06,1.51-32.12,1.64-48.18,.12-16.06,.3-32.12,.55-48.18,0-3.65,.06-7.3,.18-10.95,.12-3.65,.06-7.42-.18-11.32-.49-4.13-1.7-7.06-3.64-8.76-1.95-1.7-5.1-2.56-9.47-2.56-14.08-.24-27.98-.36-41.7-.36h-41.69c-4.13,0-6.8,.55-8.01,1.64-1.22,1.09-2.18,3.47-2.91,7.12-.24,1.7-.3,3.41-.18,5.11,.12,1.71,.18,3.41,.18,5.11V116.9h.73c-.49,15.57-.98,31.09-1.46,46.54-.49,15.46-1.22,31.09-2.18,46.9-.24,6.81-1.58,14.36-4.01,22.63-1.22,4.14-3.28,7.61-6.19,10.4-2.91,2.8-5.82,3.96-8.74,3.47-3.4,0-6.74-1.46-10.02-4.38-3.27-2.92-5.52-6.44-6.73-10.59-.49-2.92-.85-5.78-1.1-8.58-.24-2.79-.49-5.53-.73-8.21-.73-4.13-1.22-8.33-1.45-12.59-.25-4.26-.85-8.45-1.82-12.59-1.45-6.57-4.06-11.01-7.83-13.32-3.77-2.31-8.92-2.86-15.48-1.64-10.2,1.95-20.21,4.2-30.04,6.75-9.83,2.56-19.85,5.18-30.04,7.85-7.05,1.95-11.47,4.38-13.29,7.3-1.82,2.92-2,8.16-.55,15.69,1.46,7.06,2.97,14.18,4.55,21.35Z"/>
  <path class="cls-1" d="M242.06,375.29H42.95c-23.62,0-42.95,19.37-42.95,43.05v30.55c0,23.68,19.33,43.05,42.95,43.05H242.06c23.62,0,42.95-19.37,42.95-43.05v-30.55c0-23.68-19.33-43.05-42.95-43.05Z"/>
</svg>