<svg width="84" height="79" viewBox="0 0 84 79" fill="none" xmlns="http://www.w3.org/2000/svg">
<rect x="2" y="2" width="80" height="75" stroke="#302E2F" stroke-width="3"/>
<rect x="12" y="12" width="60" height="3" fill="#302E2F"/>
<path d="M17.36 33.52H22.24V35H15.54V21.06H17.36V33.52ZM30.4928 35.14C29.1995 35.14 28.0195 34.84 26.9528 34.24C25.8861 33.6267 25.0395 32.78 24.4128 31.7C23.7995 30.6067 23.4928 29.38 23.4928 28.02C23.4928 26.66 23.7995 25.44 24.4128 24.36C25.0395 23.2667 25.8861 22.42 26.9528 21.82C28.0195 21.2067 29.1995 20.9 30.4928 20.9C31.7995 20.9 32.9861 21.2067 34.0528 21.82C35.1195 22.42 35.9595 23.26 36.5728 24.34C37.1861 25.42 37.4928 26.6467 37.4928 28.02C37.4928 29.3933 37.1861 30.62 36.5728 31.7C35.9595 32.78 35.1195 33.6267 34.0528 34.24C32.9861 34.84 31.7995 35.14 30.4928 35.14ZM30.4928 33.56C31.4661 33.56 32.3395 33.3333 33.1128 32.88C33.8995 32.4267 34.5128 31.78 34.9528 30.94C35.4061 30.1 35.6328 29.1267 35.6328 28.02C35.6328 26.9 35.4061 25.9267 34.9528 25.1C34.5128 24.26 33.9061 23.6133 33.1328 23.16C32.3595 22.7067 31.4795 22.48 30.4928 22.48C29.5061 22.48 28.6261 22.7067 27.8528 23.16C27.0795 23.6133 26.4661 24.26 26.0128 25.1C25.5728 25.9267 25.3528 26.9 25.3528 28.02C25.3528 29.1267 25.5728 30.1 26.0128 30.94C26.4661 31.78 27.0795 32.4267 27.8528 32.88C28.6395 33.3333 29.5195 33.56 30.4928 33.56ZM50.4555 25.1C50.0688 24.2867 49.5088 23.66 48.7755 23.22C48.0421 22.7667 47.1888 22.54 46.2155 22.54C45.2421 22.54 44.3621 22.7667 43.5755 23.22C42.8021 23.66 42.1888 24.3 41.7355 25.14C41.2955 25.9667 41.0755 26.9267 41.0755 28.02C41.0755 29.1133 41.2955 30.0733 41.7355 30.9C42.1888 31.7267 42.8021 32.3667 43.5755 32.82C44.3621 33.26 45.2421 33.48 46.2155 33.48C47.5755 33.48 48.6955 33.0733 49.5755 32.26C50.4555 31.4467 50.9688 30.3467 51.1155 28.96H45.5555V27.48H53.0555V28.88C52.9488 30.0267 52.5888 31.08 51.9755 32.04C51.3621 32.9867 50.5555 33.74 49.5555 34.3C48.5555 34.8467 47.4421 35.12 46.2155 35.12C44.9221 35.12 43.7421 34.82 42.6755 34.22C41.6088 33.6067 40.7621 32.76 40.1355 31.68C39.5221 30.6 39.2155 29.38 39.2155 28.02C39.2155 26.66 39.5221 25.44 40.1355 24.36C40.7621 23.2667 41.6088 22.42 42.6755 21.82C43.7421 21.2067 44.9221 20.9 46.2155 20.9C47.6955 20.9 49.0021 21.2667 50.1355 22C51.2821 22.7333 52.1155 23.7667 52.6355 25.1H50.4555ZM61.7819 35.14C60.4885 35.14 59.3085 34.84 58.2419 34.24C57.1752 33.6267 56.3285 32.78 55.7019 31.7C55.0885 30.6067 54.7819 29.38 54.7819 28.02C54.7819 26.66 55.0885 25.44 55.7019 24.36C56.3285 23.2667 57.1752 22.42 58.2419 21.82C59.3085 21.2067 60.4885 20.9 61.7819 20.9C63.0885 20.9 64.2752 21.2067 65.3419 21.82C66.4085 22.42 67.2485 23.26 67.8619 24.34C68.4752 25.42 68.7819 26.6467 68.7819 28.02C68.7819 29.3933 68.4752 30.62 67.8619 31.7C67.2485 32.78 66.4085 33.6267 65.3419 34.24C64.2752 34.84 63.0885 35.14 61.7819 35.14ZM61.7819 33.56C62.7552 33.56 63.6285 33.3333 64.4019 32.88C65.1885 32.4267 65.8019 31.78 66.2419 30.94C66.6952 30.1 66.9219 29.1267 66.9219 28.02C66.9219 26.9 66.6952 25.9267 66.2419 25.1C65.8019 24.26 65.1952 23.6133 64.4219 23.16C63.6485 22.7067 62.7685 22.48 61.7819 22.48C60.7952 22.48 59.9152 22.7067 59.1419 23.16C58.3685 23.6133 57.7552 24.26 57.3019 25.1C56.8619 25.9267 56.6419 26.9 56.6419 28.02C56.6419 29.1267 56.8619 30.1 57.3019 30.94C57.7552 31.78 58.3685 32.4267 59.1419 32.88C59.9285 33.3333 60.8085 33.56 61.7819 33.56ZM29.51 41.424V57H24.626V50.928H19.984V57H15.1V41.424H19.984V47.034H24.626V41.424H29.51ZM36.5914 45.318V47.232H41.4314V50.906H36.5914V53.106H42.0914V57H31.7074V41.424H42.0914V45.318H36.5914ZM51.764 57L48.838 51.412H48.816V57H43.932V41.424H51.192C52.4534 41.424 53.5314 41.6513 54.426 42.106C55.3207 42.546 55.988 43.1547 56.428 43.932C56.8827 44.6947 57.11 45.56 57.11 46.528C57.11 47.5693 56.8167 48.4933 56.23 49.3C55.658 50.1067 54.8294 50.686 53.744 51.038L57.132 57H51.764ZM48.816 48.156H50.752C51.2214 48.156 51.5734 48.0533 51.808 47.848C52.0427 47.628 52.16 47.2907 52.16 46.836C52.16 46.4253 52.0354 46.1027 51.786 45.868C51.5514 45.6333 51.2067 45.516 50.752 45.516H48.816V48.156ZM63.5543 45.318V47.232H68.3943V50.906H63.5543V53.106H69.0543V57H58.6703V41.424H69.0543V45.318H63.5543Z" fill="#302E2F"/>
<rect x="12" y="64" width="60" height="3" fill="#302E2F"/>
</svg>
